HIERARCHY
ROOT Hips
{
	OFFSET -0.001795 -0.223333 0.028219
	CHANNELS 6 Xposition Yposition Zposition Zrotation Yrotation Xrotation 
	JOINT LeftUpLeg
	{
		OFFSET 0.069520 -0.091406 -0.006815
		CHANNELS 3 Zrotation Yrotation Xrotation
		JOINT LeftLeg
		{
			OFFSET 0.034277 -0.375199 -0.004496
			CHANNELS 3 Zrotation Yrotation Xrotation
			JOINT LeftFoot
			{
				OFFSET -0.013596 -0.397961 -0.043693
				CHANNELS 3 Zrotation Yrotation Xrotation
				JOINT LeftToe
				{
					OFFSET 0.026358 -0.055791 0.119288
					CHANNELS 3 Zrotation Yrotation Xrotation
					End Site
					{
						OFFSET 0.000000 0.000000 0.000000
					}
				}
			}
		}
	}
	JOINT RightUpLeg
	{
		OFFSET -0.067670 -0.090522 -0.004320
		CHANNELS 3 Zrotation Yrotation Xrotation
		JOINT RightLeg
		{
			OFFSET -0.038290 -0.382569 -0.008850
			CHANNELS 3 Zrotation Yrotation Xrotation
			JOINT RightFoot
			{
				OFFSET 0.015774 -0.398415 -0.042312
				CHANNELS 3 Zrotation Yrotation Xrotation
				JOINT RightToe
				{
					OFFSET -0.025372 -0.048144 0.123348
					CHANNELS 3 Zrotation Yrotation Xrotation
					End Site
					{
						OFFSET 0.000000 0.000000 0.000000
					}
				}
			}
		}
	}
	JOINT Spine
	{
		OFFSET -0.002533 0.108963 -0.026696
		CHANNELS 3 Zrotation Yrotation Xrotation
		JOINT Spine1
		{
			OFFSET 0.005487 0.135180 0.001092
			CHANNELS 3 Zrotation Yrotation Xrotation
			JOINT Spine2
			{
				OFFSET 0.001457 0.052922 0.025425
				CHANNELS 3 Zrotation Yrotation Xrotation
				JOINT Neck
				{
					OFFSET -0.002778 0.213870 -0.042857
					CHANNELS 3 Zrotation Yrotation Xrotation
					JOINT Head
					{
						OFFSET 0.005152 0.064970 0.051349
						CHANNELS 3 Zrotation Yrotation Xrotation
						End Site
						{
							OFFSET 0.000000 0.000000 0.000000
						}
					}
				}
				JOINT LeftShoulder
				{
					OFFSET 0.078845 0.121749 -0.034090
					CHANNELS 3 Zrotation Yrotation Xrotation
					JOINT LeftArm
					{
						OFFSET 0.090977 0.030469 -0.008868
						CHANNELS 3 Zrotation Yrotation Xrotation
						JOINT LeftForeArm
						{
							OFFSET 0.259612 -0.012772 -0.027456
							CHANNELS 3 Zrotation Yrotation Xrotation
							JOINT LeftHand
							{
								OFFSET 0.249234 0.008986 -0.001171
								CHANNELS 3 Zrotation Yrotation Xrotation
								End Site
								{
									OFFSET 0.000000 0.000000 0.000000
								}
							}
						}
					}
				}
				JOINT RightShoulder
				{
					OFFSET -0.081759 0.118833 -0.038615
					CHANNELS 3 Zrotation Yrotation Xrotation
					JOINT RightArm
					{
						OFFSET -0.096012 0.032551 -0.009143
						CHANNELS 3 Zrotation Yrotation Xrotation
						JOINT RightForeArm
						{
							OFFSET -0.253742 -0.013329 -0.021401
							CHANNELS 3 Zrotation Yrotation Xrotation
							JOINT RightHand
							{
								OFFSET -0.255298 0.007772 -0.005559
								CHANNELS 3 Zrotation Yrotation Xrotation
								End Site
								{
									OFFSET 0.000000 0.000000 0.000000
								}
							}
						}
					}
				}
			}
		}
	}
}
MOTION
Frames: 17
Frame Time: 0.050000
0.000000 0.880419 0.000000 1.525005 -18.650765 -1.999096 -0.261388 -1.295032 -31.332173 -4.399383 4.132989 39.623369 5.483567 11.096517 -1.373050 0.000000 0.000000 0.000000 -4.193625 1.040469 -11.368147 2.625752 3.457417 38.507417 -8.065145 -13.029631 -15.896391 0.000000 0.000000 0.000000 4.530081 -0.738381 32.448673 -5.861753 1.768999 -19.250218 -2.938210 12.161447 27.560740 13.600429 -7.450755 -19.967974 0.000000 0.000000 0.000000 -8.028393 -18.577783 7.260895 -45.717399 -14.994073 -2.256213 -132.385806 -78.987754 130.516824 0.000000 0.000000 0.000000 18.020858 7.133922 3.439589 45.716823 11.061629 -3.011065 109.413188 59.086771 84.860153 0.000000 0.000000 0.000000 
0.000077 0.883303 0.018392 0.911819 -18.298215 -2.697854 -0.964322 -1.555865 -28.689188 -3.247544 3.394870 38.850537 4.764499 9.839735 0.724775 0.000000 0.000000 0.000000 -3.566509 0.919133 -9.966539 3.100407 3.501869 40.387632 -7.859538 -13.344361 -14.374575 0.000000 0.000000 0.000000 4.112414 -0.686906 31.595099 -4.924171 1.487930 -20.254567 -2.340261 14.887979 28.854252 14.160325 -6.929473 -22.165888 0.000000 0.000000 0.000000 -10.072069 -18.211793 6.930246 -44.428648 -12.544812 -3.154664 -126.854271 -74.761988 118.892844 0.000000 0.000000 0.000000 18.130051 4.796493 2.850542 46.416848 7.874474 -4.427796 113.145755 53.739690 84.363888 0.000000 0.000000 0.000000 
0.000047 0.888645 0.037146 1.488137 -15.296583 -3.548469 -3.036629 -2.268104 -26.535054 -1.936215 2.196468 38.645671 4.609467 9.444884 -1.000315 0.000000 0.000000 0.000000 -4.433293 0.595780 -6.368277 3.626965 2.576360 38.996824 -7.959086 -14.062595 -14.988081 0.000000 0.000000 0.000000 4.713207 -1.134865 29.247143 -7.179406 2.261232 -19.092084 -2.140216 12.656304 28.924741 13.230563 -6.569790 -21.640723 0.000000 0.000000 0.000000 -10.252816 -16.424455 6.268839 -43.342115 -9.761952 -4.044513 -122.745874 -70.295792 109.927424 0.000000 0.000000 0.000000 19.061897 3.270871 1.901243 43.805990 5.362824 -5.132655 113.297471 49.449934 78.125116 0.000000 0.000000 0.000000 
-0.000139 0.897388 0.055765 2.144016 -16.009273 -4.822127 -4.522214 -2.403259 -23.130465 -1.638401 2.072023 37.004258 3.720250 7.599146 -1.364282 0.000000 0.000000 0.000000 -4.688285 0.576272 -6.141397 2.877631 3.340612 41.058552 -7.249156 -13.217999 -11.387818 0.000000 0.000000 0.000000 3.649209 -0.795749 28.679413 -6.885199 2.119672 -20.662210 -2.266698 14.642265 30.703460 13.038952 -6.482054 -20.797798 0.000000 0.000000 0.000000 -9.667181 -14.850070 5.404502 -43.007603 -5.038934 -5.749001 -124.665732 -63.564441 104.433969 0.000000 0.000000 0.000000 20.295489 0.841462 0.970569 43.102477 3.008041 -6.137835 115.334970 43.615817 73.531423 0.000000 0.000000 0.000000 
-0.000425 0.908408 0.072555 2.031256 -15.822967 -5.453655 -5.111085 -2.254357 -19.310010 -1.303935 1.610673 33.682606 3.507128 7.204206 -1.464143 0.000000 0.000000 0.000000 -3.849572 0.580189 -6.299548 2.035376 3.938141 42.328069 -6.913139 -13.608383 -8.236629 0.000000 0.000000 0.000000 3.653514 -0.823885 26.881269 -8.142502 2.529856 -19.925000 -1.570599 14.200265 30.237794 12.678689 -6.631186 -19.211786 0.000000 0.000000 0.000000 -8.020324 -12.333451 4.350531 -44.414517 0.181705 -7.697049 -123.730837 -58.698192 98.007788 0.000000 0.000000 0.000000 20.323002 -1.199563 -0.308480 42.243155 1.033206 -6.579133 115.116051 40.089078 67.860826 0.000000 0.000000 0.000000 
-0.001162 0.921224 0.086354 1.487599 -15.424663 -5.571884 -4.987713 -1.915268 -15.508007 -0.663253 0.901674 29.031657 2.825213 6.000867 -0.099503 0.000000 0.000000 0.000000 -3.559922 0.683842 -7.673411 1.836674 4.040908 42.870124 -6.569217 -13.455894 -6.527821 0.000000 0.000000 0.000000 3.860619 -0.907945 26.535131 -8.261063 2.505158 -21.948291 -0.744493 14.771631 31.925757 12.162695 -5.986183 -20.213376 0.000000 0.000000 0.000000 -7.850745 -10.847558 3.699363 -44.589029 4.343333 -9.314371 -122.925934 -52.943036 89.695977 0.000000 0.000000 0.000000 19.902725 -2.764297 -0.952018 41.985536 -0.852558 -7.318222 115.551239 37.018873 64.543764 0.000000 0.000000 0.000000 
-0.002704 0.933083 0.097318 0.644192 -14.860254 -4.999995 -4.414915 -1.551470 -12.531085 -0.444233 0.502888 24.977755 2.446478 5.333947 0.517391 0.000000 0.000000 0.000000 -2.287348 0.877198 -9.445289 1.505061 4.008286 42.390149 -5.787272 -11.776250 -5.748266 0.000000 0.000000 0.000000 3.673284 -0.929306 25.900827 -7.897714 2.389288 -22.227732 -0.470166 14.548711 31.677086 12.120161 -5.926459 -20.273082 0.000000 0.000000 0.000000 -6.229418 -8.639937 2.823847 -45.670596 7.843253 -10.813362 -122.559639 -49.681618 84.962969 0.000000 0.000000 0.000000 20.569722 -3.598688 -1.433451 39.735182 -2.094416 -7.311713 114.339670 35.898051 60.994458 0.000000 0.000000 0.000000 
-0.005377 0.942311 0.106574 -0.197812 -14.100225 -3.577622 -3.575471 -1.320249 -11.231558 -0.700248 0.360590 21.571855 2.082812 4.695861 1.139180 0.000000 0.000000 0.000000 -1.120511 1.158189 -11.561911 1.041968 3.610151 39.456346 -5.175868 -9.793121 -6.590445 0.000000 0.000000 0.000000 3.703009 -1.011041 25.683600 -7.923874 2.397780 -22.351144 -0.025897 14.201129 30.940809 11.369984 -5.328833 -20.234109 0.000000 0.000000 0.000000 -6.362528 -7.786093 2.447743 -45.432963 9.228307 -11.128100 -122.511692 -48.037751 82.360764 0.000000 0.000000 0.000000 19.916671 -4.025786 -1.669370 38.529337 -2.794445 -7.175935 113.414889 36.396383 60.381784 0.000000 0.000000 0.000000 
-0.009147 0.947698 0.114639 -0.605920 -13.173081 -2.337234 -2.896941 -1.116517 -9.894202 -0.397296 0.095883 18.319823 1.473168 3.565682 1.718400 0.000000 0.000000 0.000000 -1.389788 1.297493 -12.962172 0.227959 3.029426 34.004388 -4.914463 -9.029256 -6.688809 0.000000 0.000000 0.000000 3.871275 -1.120812 25.236905 -7.246734 2.210591 -22.429902 -0.544097 14.363589 30.791335 11.729875 -5.338050 -20.827126 0.000000 0.000000 0.000000 -6.330705 -7.812370 2.387668 -44.189786 8.522553 -10.510655 -122.689617 -48.910960 83.012578 0.000000 0.000000 0.000000 20.180165 -4.462657 -1.778858 35.947538 -2.205039 -6.597859 111.514378 37.934770 60.436862 0.000000 0.000000 0.000000 
-0.013934 0.950111 0.122013 -0.965865 -11.481462 -1.168131 -2.765807 -1.034509 -9.208830 0.750282 -0.345050 16.016152 0.570257 1.815989 2.033110 0.000000 0.000000 0.000000 -1.093091 1.306732 -12.961925 -0.726400 2.397089 27.727011 -3.880063 -6.676186 -5.833168 0.000000 0.000000 0.000000 4.462796 -1.361389 24.770714 -7.304328 2.269524 -21.757276 -1.146765 13.883337 30.287581 12.349840 -5.507240 -21.574973 0.000000 0.000000 0.000000 -6.225376 -8.447227 2.576660 -42.847984 6.880193 -9.543666 -125.079124 -50.082260 86.905255 0.000000 0.000000 0.000000 19.749491 -4.715836 -1.827458 34.773707 -1.867081 -6.252996 111.299701 39.073424 61.722633 0.000000 0.000000 0.000000 
-0.019593 0.950577 0.128991 -0.791012 -9.708665 -0.252332 -2.640576 -1.016409 -9.152139 1.425959 -0.577458 14.682856 -0.139585 0.304545 1.755903 0.000000 0.000000 0.000000 -1.332657 1.231693 -12.555366 -0.954654 1.731129 22.078975 -2.286473 -3.652352 -3.665649 0.000000 0.000000 0.000000 4.410174 -1.457072 24.554861 -7.144147 2.278303 -21.032638 -1.281732 13.199334 29.831246 12.356920 -5.371958 -21.836581 0.000000 0.000000 0.000000 -6.302463 -9.491117 2.932696 -41.573379 3.558253 -8.094891 -126.486763 -53.026948 92.081931 0.000000 0.000000 0.000000 18.799605 -4.123580 -1.414648 35.055556 -1.364454 -6.106119 110.582837 40.962306 63.869670 0.000000 0.000000 0.000000 
-0.025802 0.950219 0.136003 -0.586364 -8.107966 1.492808 -2.698135 -1.117731 -10.176671 1.562966 -0.628316 13.300867 -1.046316 -1.251797 2.520021 0.000000 0.000000 0.000000 -1.806547 1.276217 -13.407622 -1.181436 1.360586 18.192037 -1.241482 -2.713797 -0.748072 0.000000 0.000000 0.000000 4.860775 -1.621771 23.500511 -7.275701 2.381573 -19.664282 -1.778350 12.856849 28.842825 13.029737 -5.573103 -22.320555 0.000000 0.000000 0.000000 -6.120929 -10.768063 3.365297 -39.877527 -0.548588 -6.383638 -130.422125 -55.672957 99.966668 0.000000 0.000000 0.000000 18.642891 -3.321552 -0.861179 34.988397 -0.287271 -5.766681 110.651307 44.467273 68.882711 0.000000 0.000000 0.000000 
-0.032445 0.950306 0.142945 -0.221046 -6.800589 2.966578 -2.916503 -1.287690 -11.687347 1.453420 -0.635690 13.411842 -1.022556 -1.099261 2.692962 0.000000 0.000000 0.000000 -2.019229 1.343923 -14.371489 -1.097464 1.147497 16.394576 -1.033468 -3.373360 1.354723 0.000000 0.000000 0.000000 4.556488 -1.648531 23.574906 -6.373675 2.135513 -19.681844 -2.141583 12.448823 28.512160 13.204068 -5.321560 -23.504441 0.000000 0.000000 0.000000 -5.496144 -12.798835 4.127669 -39.222712 -5.450104 -4.788052 -134.936454 -58.820636 109.611916 0.000000 0.000000 0.000000 17.752406 -1.571399 0.173687 36.399920 2.696158 -5.149910 113.485162 49.887375 79.679519 0.000000 0.000000 0.000000 
-0.039484 0.949850 0.149048 -0.087287 -5.551049 4.630413 -2.500909 -1.401696 -13.220853 0.993050 -0.552869 13.338285 -0.824002 -0.544982 2.979687 0.000000 0.000000 0.000000 -2.227046 1.383126 -15.078516 -0.937399 0.968103 14.944584 -0.996468 -4.148354 3.133220 0.000000 0.000000 0.000000 4.944216 -1.802558 23.105705 -6.007342 2.048371 -19.285881 -2.574434 12.603368 27.810154 14.489432 -5.678778 -24.824480 0.000000 0.000000 0.000000 -5.136588 -15.518642 5.086199 -36.521479 -12.284825 -2.584976 -141.846755 -63.738075 123.731382 0.000000 0.000000 0.000000 18.012420 0.850236 1.707827 36.080390 7.943401 -3.770173 116.679505 58.210363 94.198030 0.000000 0.000000 0.000000 
-0.046633 0.950299 0.152260 0.021658 -5.069232 6.180591 -2.211928 -1.625707 -15.846299 0.769936 -0.540128 14.514203 -0.118559 1.090342 3.519849 0.000000 0.000000 0.000000 -2.548563 1.504367 -16.714912 -0.158645 0.791504 15.224915 -1.479766 -5.474739 3.611210 0.000000 0.000000 0.000000 4.823447 -1.905171 24.363138 -5.120472 1.792521 -19.469284 -2.882777 13.122739 27.003118 14.903309 -5.562336 -25.546566 0.000000 0.000000 0.000000 -4.683558 -19.832725 6.616324 -32.821055 -21.012146 -0.308445 -159.001004 -70.935372 152.461298 0.000000 0.000000 0.000000 16.806206 4.745776 3.925425 36.762573 17.229907 -1.183822 118.955307 71.932537 112.790551 0.000000 0.000000 0.000000 
-0.053198 0.950297 0.150819 0.243575 -3.973840 7.311953 -2.103889 -1.809313 -17.750224 0.475509 -0.524772 15.529251 0.011231 1.499553 3.793107 0.000000 0.000000 0.000000 -2.782324 1.660090 -18.945221 0.409205 0.705097 16.752472 -2.065891 -6.853721 3.794240 0.000000 0.000000 0.000000 4.936923 -2.116419 25.809538 -4.831769 1.729882 -19.294061 -3.358691 12.175908 26.280623 15.288807 -6.010715 -24.797630 0.000000 0.000000 0.000000 -3.343034 -25.238978 8.561266 -25.790506 -31.887650 1.148092 135.033548 -78.154802 -124.270086 0.000000 0.000000 0.000000 15.095093 11.536462 7.211249 32.508959 28.918155 1.787170 -65.241967 85.980333 -52.331573 0.000000 0.000000 0.000000 
-0.059007 0.951113 0.144566 0.400159 -2.545538 9.145497 -1.654760 -2.131927 -21.483393 0.181281 -0.538678 17.111563 0.489702 2.902591 4.871429 0.000000 0.000000 0.000000 -3.266687 1.809001 -21.880510 1.446256 0.437260 17.936489 -2.728587 -8.609382 4.703890 0.000000 0.000000 0.000000 4.629123 -2.396785 29.012593 -3.754791 1.443235 -19.957411 -4.047751 12.057139 24.809662 15.931779 -6.485354 -23.687231 0.000000 0.000000 0.000000 0.287740 -32.462267 10.552367 -14.427487 -43.442023 -0.243535 72.112938 -62.976631 -46.938488 0.000000 0.000000 0.000000 11.382657 17.720278 9.686413 23.130679 41.323618 3.004125 -56.707999 61.065425 -28.468941 0.000000 0.000000 0.000000 
